# xmcd
#
# Track frame offsets:
#	150
#	12870
#	23025
#	35015
#	46517
#	57315
#	70297
#	82872
#	93960
#	105062
#	117712
#	129907
#	142577
#	152095
#	162715
#	173902
#	185520
#	194467
#	204867
#	216712
#	228855
#	238630
#	249012
#	261135
#	272675
#	284527
#	296450
#	307585
#	318850
#	329580
#
# Disc length: 4548 seconds
#
# Revision: 0
# Processed by: cddbd v1.5PL3 Copyright (c) Steve Scherf et al.
# Submitted via: audiograbber 1.80
#
DISCID=9711c21e
DTITLE=skeets mcdonald - Don't Let The Stars Get In... cd2
DYEAR=1900
DGENRE=
TTITLE0=Heartbreaking One 
TTITLE1=Wheel Of Fortune 
TTITLE2=Please Come Back 
TTITLE3=You Made Me Cry 
TTITLE4=Curtain Of Tears 
TTITLE5=I'm Sorry To Say I'm Sorry 
TTITLE6=Don't Let The Stars Get In Your Eyes 
TTITLE7=A Losing Hand 
TTITLE8=I've Got To Win Your Love Again 
TTITLE9=Let Me Know 
TTITLE10=I Can't Last Long 
TTITLE11=Baby, I'm Lost Without You 
TTITLE12=Hi Diddle Dee (My Way)(& HELEN O'CONNELL) 
TTITLE13=Worried Mind (& HELEN O'CONNELL) 
TTITLE14=Walking On Teardrops 
TTITLE15=It's Your Life 
TTITLE16=Baby, I'm Countin' 
TTITLE17=Look Who's Cryin' Now 
TTITLE18=I Need Your Love 
TTITLE19=Looking At The Moon And Wishing On A Star 
TTITLE20=We're Lovin' And Livin' 
TTITLE21=Oh How It Hurts 
TTITLE22=Remember You're Mine 
TTITLE23=Your Love Is Like A Faucet 
TTITLE24=You Talk About Me, I'll Talk About You 
TTITLE25=I Love You, I Love You, I Love You 
TTITLE26=I Love You, Mama Mia 
TTITLE27=Smoke Comes Out My Chimney Just The Same 
TTITLE28=Each Time A New Love Dies 
TTITLE29=But I Do 
EXTD=
EXTT0=
EXTT1=
EXTT2=
EXTT3=
EXTT4=
EXTT5=
EXTT6=
EXTT7=
EXTT8=
EXTT9=
EXTT10=
EXTT11=
EXTT12=
EXTT13=
EXTT14=
EXTT15=
EXTT16=
EXTT17=
EXTT18=
EXTT19=
EXTT20=
EXTT21=
EXTT22=
EXTT23=
EXTT24=
EXTT25=
EXTT26=
EXTT27=
EXTT28=
EXTT29=
PLAYORDER=
